<svg xmlns="http://www.w3.org/2000/svg" width="349.5312744140625" height="134.21284957882435" viewBox="0 0 369.89473684210526 142.03200202617109" class="looka-1j8o68f"><defs id="SvgjsDefs2579"></defs><g id="SvgjsG2580" featurekey="symbolFeature-0" transform="matrix(3.4762627944099482,0,0,3.4762627944099482,-7.9409940001822275,16.00593260210916)" fill="#ffffff"><path xmlns="http://www.w3.org/2000/svg" d="M19.664,13.035c-0.339-1.021-1.159-1.811-2.194-2.107c-0.577-0.166-1.171-0.307-1.766-0.42  c-0.052-0.01-0.103-0.029-0.15-0.063l-0.87-0.592l-0.952,0.33c-0.101,0.037-0.222,0.029-0.32-0.023l-0.888-0.473l-0.91,0.432  c-0.098,0.047-0.218,0.051-0.32,0.01l-0.935-0.373l-0.673,0.412c-0.122,0.074-0.261,0.115-0.401,0.115  c-1.267-0.029-2.482-0.277-3.636-0.742c0.99,0.82,2.153,1.42,3.4,1.75c0.1,0.025,0.163,0.123,0.146,0.225  c-0.016,0.098-0.1,0.168-0.197,0.168c-0.004,0-0.009,0-0.014,0c-1.146-0.078-2.276-0.307-3.362-0.678  c-0.004-0.002-0.009-0.002-0.013-0.002c-0.037,0-0.062,0.014-0.07,0.043c-0.007,0.018-0.005,0.035,0.004,0.051  c2.588,4.906,7.626,7.98,13.166,8.045C19.993,17.383,20.352,15.107,19.664,13.035z M11.637,12.234c-0.292,0-0.529-0.236-0.529-0.529  c0-0.291,0.237-0.527,0.529-0.527s0.529,0.236,0.529,0.527C12.166,11.998,11.929,12.234,11.637,12.234z"></path><g xmlns="http://www.w3.org/2000/svg"><path d="M14.231,6.51c-2.625-0.574-5.303-0.664-7.959-0.271C4.844,6.451,3.854,7.785,4.066,9.213   c0.106,0.713,0.505,1.332,1.089,1.744c0.004-0.014,0.001-0.027,0.006-0.041c0.042-0.121,0.134-0.215,0.246-0.266   C4.9,10.301,4.554,9.768,4.463,9.154c-0.18-1.209,0.658-2.34,1.868-2.52c2.608-0.389,5.237-0.299,7.814,0.266   c2.092,0.457,4.209,0.461,6.295,0.012c0.108-0.023,0.177-0.129,0.153-0.238c-0.022-0.107-0.13-0.174-0.237-0.152   C18.325,6.955,16.265,6.951,14.231,6.51z"></path><path d="M5.189,11.285c-0.054-0.1-0.062-0.217-0.034-0.326c-0.794-0.086-1.526-0.5-1.983-1.162   C2.308,8.541,2.625,6.814,3.881,5.949c2.185-1.506,4.835-2.154,7.475-1.822c2.856,0.359,5.724-0.143,8.29-1.447   c0.099-0.051,0.138-0.172,0.088-0.27c-0.052-0.1-0.171-0.139-0.27-0.088c-2.494,1.27-5.282,1.756-8.06,1.408   c-2.723-0.342-5.483,0.328-7.75,1.889c-1.438,0.99-1.802,2.967-0.813,4.404c0.548,0.795,1.439,1.285,2.398,1.352   C5.224,11.344,5.205,11.316,5.189,11.285z"></path></g><path xmlns="http://www.w3.org/2000/svg" d="M19.158,19.178c1.248-1.836,1.589-4.15,0.885-6.268c-0.178-0.537-0.483-1.01-0.867-1.402  c2.849,1.113,5.398,2.889,7.437,5.162c-0.013,0.186-0.033,0.375-0.072,0.561c-0.237,1.125-0.897,2.09-1.859,2.719  c-0.942,0.615-2.065,0.828-3.168,0.615C20.979,19.797,20.134,19.283,19.158,19.178z"></path><path xmlns="http://www.w3.org/2000/svg" d="M7.989,20.721c-0.052-0.188-0.034-0.387,0.05-0.563c0.192-0.391,0.666-0.559,1.062-0.367  c1.717,0.832,3.083,2.252,3.873,3.971c-1.3-1.254-2.971-2.072-4.763-2.328C8.132,21.197,8.057,20.959,7.989,20.721z"></path><path xmlns="http://www.w3.org/2000/svg" d="M13.033,27.896c-2.362-1.066-4.474-2.715-6.105-4.865c-0.117-0.154-0.174-0.348-0.159-0.539  c0.017-0.213,0.114-0.404,0.275-0.543c0.145-0.125,0.325-0.191,0.515-0.191c0.021,0,0.041,0.002,0.062,0.002  c2.214,0.168,4.284,1.242,5.699,2.951C12.975,25.736,12.878,26.828,13.033,27.896z"></path><path xmlns="http://www.w3.org/2000/svg" d="M13.678,24.934c0.993,0.412,2.039,0.686,3.104,0.807c-0.313,1.127-0.197,2.316,0.314,3.365  c-1.247-0.195-2.465-0.537-3.626-1.02C13.275,27.035,13.353,25.953,13.678,24.934z"></path><path xmlns="http://www.w3.org/2000/svg" d="M17.561,29.162c-0.583-1.035-0.717-2.254-0.379-3.391c0.297,0.023,0.594,0.047,0.892,0.047c0.339,0,0.678-0.016,1.016-0.045  c0.225-0.021,0.443-0.064,0.654-0.127c0.248,1.365,0.937,2.586,1.976,3.498C20.323,29.336,18.928,29.336,17.561,29.162z"></path><path xmlns="http://www.w3.org/2000/svg" d="M23.238,28.865c-0.328,0.08-0.658,0.139-0.988,0.195c-1.139-0.887-1.885-2.146-2.122-3.568  c0.463-0.203,0.882-0.498,1.215-0.896c0.083-0.102,0.146-0.211,0.217-0.318c1.249,1.031,2.798,1.59,4.379,1.59  c0.597,0,1.193-0.102,1.781-0.26c-0.003,0.004-0.006,0.01-0.009,0.016C26.702,27.266,25.114,28.418,23.238,28.865z"></path><path xmlns="http://www.w3.org/2000/svg" d="M27.981,25.131c-2.142,0.711-4.499,0.256-6.219-1.197c0.27-0.543,0.395-1.146,0.339-1.766  c-0.037-0.422-0.153-0.818-0.329-1.178c0.189,0.023,0.378,0.061,0.567,0.061c0.902,0,1.786-0.262,2.56-0.768  c1.052-0.686,1.773-1.74,2.031-2.971c0.018-0.082,0.02-0.164,0.032-0.246c0.051,0.059,0.104,0.113,0.154,0.174  c0.701,0.844,1.207,1.857,1.464,2.928C28.985,21.859,28.769,23.6,27.981,25.131z"></path></g><g id="SvgjsG2581" featurekey="nameFeature-0" transform="matrix(1.0263702935338164,0,0,1.0263702935338164,110.05461794179213,-0.04054186934268679)" fill="#ffffff"><path d="M11.348 27.266 l2.2266 0 c-0.35156 4.707 2.8516 8.2422 11.875 2.4414 l2.9297 0 l-1.8359 7.9688 c-9.9023 5.7031 -24.59 3.9844 -22.441 -10.41 l-2.207 0 c0.11719 -0.52734 0.23438 -1.1523 0.39063 -1.8359 c1.9922 -8.7305 8.6523 -15.078 17.93 -15.078 c5.1172 0 8.0664 1.4648 9.8242 2.6758 l-1.8945 8.1641 l-3.1445 0 c-7.0703 -7.6172 -13.184 0.15625 -13.652 6.0742 z M58.359187500000004 25.683999999999997 c-0.15625 0.625 -0.33203 1.25 -0.56641 1.8945 l2.1289 0 c-2.4805 7.7539 -8.7891 13.379 -17.441 13.379 c-8.9258 0 -12.402 -5.625 -11.27 -13.379 l-2.0703 0 c0.078125 -0.64453 0.17578 -1.2695 0.3125 -1.8945 c2.0703 -8.9258 8.5352 -15.313 17.93 -15.313 c9.1992 0 12.988 6.4453 10.977 15.313 z M49.7851875 27.578 l-2.1094 0 c0.19531 -0.64453 0.39063 -1.2695 0.52734 -1.9336 c2.4805 -10.723 -6.1719 -10.41 -8.5938 0.039063 c-0.13672 0.68359 -0.23438 1.3086 -0.33203 1.8945 l2.1094 0 c-1.0156 8.1641 5.6445 7.9883 8.3984 0 z M69.68784375 27.266 l2.2266 0 c-0.35156 4.707 2.8516 8.2422 11.875 2.4414 l2.9297 0 l-1.8359 7.9688 c-9.9023 5.7031 -24.59 3.9844 -22.441 -10.41 l-2.207 0 c0.11719 -0.52734 0.23438 -1.1523 0.39063 -1.8359 c1.9922 -8.7305 8.6523 -15.078 17.93 -15.078 c5.1172 0 8.0664 1.4648 9.8242 2.6758 l-1.8945 8.1641 l-3.1445 0 c-7.0703 -7.6172 -13.184 0.15625 -13.652 6.0742 z M106.42603125 26.719 l-2.9688 13.359 l-9.9023 0 l3.0469 -13.359 l-1.7773 0 l1.9727 -8.5547 l-7.8125 0 l1.7188 -7.4023 l25.352 0 l-1.6602 7.4023 l-7.793 0 l-1.9141 8.5547 l1.7383 0 z M116.1523375 27.344 l-1.9922 0 l3.8281 -16.484 l20.918 0 l-1.6797 7.4023 l-11.152 0 l-0.58594 2.5 l10.254 0 l-1.5039 6.582 l1.9922 0 l-0.17578 0.78125 l-10.273 0 l-1.0352 4.5703 l11.113 0 l-1.6797 7.3828 l-20.957 0 z M140.2343625 27.266 l-1.7969 0 l3.75 -16.367 l9.8047 0 l-3.7891 16.367 l1.8164 0 l-1.2891 5.332 l10.84 0 l-1.6797 7.3828 l-20.605 0 z M162.14843125 27.344 l-1.9922 0 l3.8281 -16.484 l20.918 0 l-1.6797 7.4023 l-11.152 0 l-0.58594 2.5 l10.254 0 l-1.5039 6.582 l1.9922 0 l-0.17578 0.78125 l-10.273 0 l-1.0352 4.5703 l11.113 0 l-1.6797 7.3828 l-20.957 0 z M186.13285625 26.719 l-1.7773 0 l3.6328 -15.957 c3.3984 0 9.5313 -0.33203 14.375 0.3125 c4.2773 0.625 8.418 2.207 7.6953 7.3438 c-0.41016 3.1055 -2.793 6.2891 -5.3711 8.3008 l1.7578 0 c-0.46875 0.35156 -0.9375 0.72266 -1.4453 0.97656 l6.6797 12.383 l-11.719 0 l-4.8828 -9.5508 l-2.168 9.5508 l-9.8438 0 z M196.21115625 17.988 l-1.1914 5.0391 c4.707 0 7.3438 -5.0391 1.1914 -5.0391 z M225.410375 27.344 l-2.9297 12.734 l-9.8828 0 l2.9297 -12.734 l-1.9922 0 l3.8281 -16.484 l9.8633 0 l-3.7891 16.484 l1.9727 0 z M219.316375 9.102 l2.5586 -9.0625 l6.543 0 l-4.5898 9.0625 l-4.5117 0 z M231.4844125 27.266 l-2.2461 0 l9.1797 -16.387 l9.7461 0 l1.582 16.387 l2.1875 0 l1.2305 12.715 l-10.059 0 l-0.41016 -5.4883 l-5.5664 0 c-0.97656 1.8164 -1.8945 3.6523 -2.8711 5.4883 l-9.8828 0 z M242.4413125 27.676000000000002 l0 -0.41016 l-2.1289 0 l0.039063 -6.4844 l-2.6172 6.4844 l2.168 0 l-0.15625 0.41016 l2.6953 0 z"></path></g><g id="SvgjsG2582" featurekey="nameFeature-1" transform="matrix(3.0621887511471777,0,0,3.0621887511471777,116.42688560012125,19.306552498469074)" fill="#ffffff"><path d="M5.6641 27.266 l-2.2461 0 l9.1797 -16.387 l9.7461 0 l1.582 16.387 l2.1875 0 l1.2305 12.715 l-10.059 0 l-0.41016 -5.4883 l-5.5664 0 c-0.97656 1.8164 -1.8945 3.6523 -2.8711 5.4883 l-9.8828 0 z M16.621 27.676000000000002 l0 -0.41016 l-2.1289 0 l0.039063 -6.4844 l-2.6172 6.4844 l2.168 0 l-0.15625 0.41016 l2.6953 0 z M30.97660625 26.719 l-1.7773 0 l3.6328 -15.957 c3.3984 0 9.5313 -0.33203 14.375 0.3125 c4.2773 0.625 8.418 2.207 7.6953 7.3438 c-0.41016 3.1055 -2.793 6.2891 -5.3711 8.3008 l1.7578 0 c-0.46875 0.35156 -0.9375 0.72266 -1.4453 0.97656 l6.6797 12.383 l-11.719 0 l-4.8828 -9.5508 l-2.168 9.5508 l-9.8438 0 z M41.05490625 17.988 l-1.1914 5.0391 c4.707 0 7.3438 -5.0391 1.1914 -5.0391 z M60.019525 27.344 l-1.9922 0 l3.8281 -16.484 l20.918 0 l-1.6797 7.4023 l-11.152 0 l-0.58594 2.5 l10.254 0 l-1.5039 6.582 l1.9922 0 l-0.17578 0.78125 l-10.273 0 l-1.0352 4.5703 l11.113 0 l-1.6797 7.3828 l-20.957 0 z"></path></g></svg>